<svg width="18" height="18" viewBox="0 0 18 18" fill="none" xmlns="http://www.w3.org/2000/svg">
<path d="M12.1338 5.85291C13.4244 5.85291 14.6621 6.36559 15.5747 7.27817C16.4873 8.19074 17 9.42847 17 10.719V16.3962H13.7559V10.719C13.7559 10.2889 13.585 9.87628 13.2808 9.57209C12.9766 9.26789 12.564 9.097 12.1338 9.097C11.7036 9.097 11.2911 9.26789 10.9869 9.57209C10.6827 9.87628 10.5118 10.2889 10.5118 10.719V16.3962H7.2677V10.719C7.2677 9.42847 7.78038 8.19074 8.69296 7.27817C9.60554 6.36559 10.8433 5.85291 12.1338 5.85291V5.85291Z" stroke="white" stroke-width="1.5" stroke-linecap="round" stroke-linejoin="round"/>
<path d="M4.02364 6.66391H0.779541V16.3962H4.02364V6.66391Z" stroke="white" stroke-width="1.5" stroke-linecap="round" stroke-linejoin="round"/>
<path d="M2.40159 4.23085C3.29742 4.23085 4.02364 3.50463 4.02364 2.6088C4.02364 1.71297 3.29742 0.986755 2.40159 0.986755C1.50576 0.986755 0.779541 1.71297 0.779541 2.6088C0.779541 3.50463 1.50576 4.23085 2.40159 4.23085Z" stroke="white" stroke-width="1.5" stroke-linecap="round" stroke-linejoin="round"/>
</svg>
